<svg xmlns="http://www.w3.org/2000/svg">

<style>
symbol{
fill:none;
stroke:#e46f1f;
stroke-width:2;
stroke-linecap:round;
stroke-linejoin:round;
vector-effect:non-scaling-stroke;
}
</style>

<!-- ================= HOME ================= -->

<symbol id="icon-home" viewBox="0 0 24 24">
<path d="M5 11L12 5L19 11"/>
<path d="M7 10V19H17V10"/>
</symbol>

<!-- ================= USER ================= -->

<symbol id="icon-user" viewBox="0 0 24 24">
<circle cx="12" cy="8" r="4"/>
<path d="M5 20C6.8 16.5 9 15 12 15C15 15 17.2 16.5 19 20"/>
</symbol>

<!-- ================= PHONE ================= -->

<symbol id="icon-phone" viewBox="0 0 24 24">
<path d="M5 4L9 4L10 8L8 10C9.5 13 11 14.5 14 16L16 14L20 15L20 19C20 20 19 21 18 21C10 21 3 14 3 6C3 5 4 4 5 4Z"/>
</symbol>

<!-- ================= PRODUCTS ================= -->

<symbol id="icon-products" viewBox="0 0 24 24">
<path d="M4 7H20"/>
<path d="M6 7V20H18V7"/>
<path d="M8 7L10 4H14L16 7"/>
</symbol>

<!-- ================= PROJECTS ================= -->

<symbol id="icon-projects" viewBox="0 0 24 24">
<path d="M3 7H9L11 9H21V20H3Z"/>
<path d="M3 7V5H9L11 7"/>
</symbol>

<!-- ================= WHATSAPP ================= -->

<symbol id="icon-whatsapp" viewBox="0 0 24 24">
<path d="M12 3A9 9 0 003 12C3 13.7 3.5 15.3 4.4 16.7L3 21L7.4 19.7A9 9 0 1012 3Z"/>
<path d="M9 8C10 12 12 14 16 15"/>
</symbol>

<!-- ================= INSTAGRAM ================= -->

<symbol id="icon-instagram" viewBox="0 0 24 24">
<rect x="3" y="3" width="18" height="18" rx="4"/>
<circle cx="12" cy="12" r="4"/>
<circle cx="17.5" cy="6.5" r=".8"/>
</symbol>

<!-- ================= CONSUMABLES ================= -->

<symbol id="icon-consumables" viewBox="0 0 24 24">

<path stroke="none" d="M0 0h24v24H0z" fill="none"/>

<path d="M7 21h10v-10a3 3 0 0 0-3-3h-4a3 3 0 0 0-3 3v10"/>

<path d="M15 3h-6a2 2 0 0 0-2 2"/>

<path d="M12 3v5"/>

<path d="M12 11v4"/>

<path d="M10 13h4"/>

</symbol>

<!-- ================= HOSPITAL ================= -->

<symbol id="icon-hospital" viewBox="0 0 24 24">

<path stroke="none" d="M0 0h24v24H0z" fill="none"/>

<path d="M14 18a2 2 0 1 0 4 0"/>

<path d="M6 18a2 2 0 1 0 4 0"/>

<path d="M4 8l2.1 2.8a3 3 0 0 0 2.4 1.2h11.5"/>

<path d="M10 6h4"/>

<path d="M12 4v4"/>

<path d="M12 12v2l-2.5 2.5"/>

<path d="M14.5 16.5l-2.5-2.5"/>

</symbol>

  <!-- ================= GAS ================= -->

<symbol id="icon-gas" viewBox="0 0 24 24">

<path stroke="none" d="M0 0h24v24H0z" fill="none"/>

<path d="M3 21h18"/>

<path d="M5 21V5a2 2 0 0 1 2-2h10a2 2 0 0 1 2 2v16"/>

<path d="M9 21v-4a2 2 0 0 1 2-2h2a2 2 0 0 1 2 2v4"/>

<path d="M10 9h4"/>

<path d="M12 7v4"/>

</symbol>


<!-- ================= LEAD ================= -->

<symbol id="icon-lead" viewBox="0 0 24 24">

<path stroke="none" d="M0 0h24v24H0z" fill="none"/>

<path d="M13.5 14.6l3 5.19a9 9 0 0 0 4.5-7.79h-6a3 3 0 0 1-1.5 2.6"/>

<path d="M13.5 9.4l3-5.19a9 9 0 0 0-9 0l3 5.19a3 3 0 0 1 3 0"/>

<path d="M10.5 14.6l-3 5.19A9 9 0 0 1 3 12h6a3 3 0 0 0 1.5 2.6"/>

</symbol>


<!-- ================= SPECIAL ================= -->

<symbol id="icon-special" viewBox="0 0 24 24">

<path stroke="none" d="M0 0h24v24H0z" fill="none"/>

<path d="M12 3l8 4.5v9L12 21l-8-4.5v-9L12 3z"/>

<path d="M12 12l8-4.5"/>

<path d="M12 12v9"/>

<path d="M12 12L4 7.5"/>

<path d="M16 5.25l-8 4.5"/>

</symbol>


<!-- ================= PROJECT : INTERIOR ================= -->

<symbol id="icon-interior" viewBox="0 0 24 24">

<path d="M5 20V8h14v12"/>

<path d="M7 20v-6h10v6"/>

<path d="M8 8V5h8v3"/>

</symbol>


<!-- ================= PROJECT : OFFICE ================= -->

<symbol id="icon-office" viewBox="0 0 24 24">

<path d="M5 21V4h10v17"/>

<path d="M15 10h4v11"/>

<path d="M8 8h2"/>

<path d="M8 12h2"/>

<path d="M8 16h2"/>

</symbol>


<!-- ================= PROJECT : KITCHEN ================= -->

<symbol id="icon-kitchen" viewBox="0 0 24 24">

<path d="M6 3v18"/>

<path d="M6 8h6"/>

<path d="M12 3v18"/>

<path d="M16 3v18"/>

<path d="M16 8h2"/>

<path d="M18 3v18"/>

</symbol>


<!-- ================= PROJECT : EXHIBITION ================= -->

<symbol id="icon-exhibition" viewBox="0 0 24 24">

<path d="M4 20h16"/>

<path d="M7 20V8"/>

<path d="M17 20V8"/>

<path d="M7 8l5-4l5 4"/>

</symbol>


<!-- ================= PROJECT : CAMPER ================= -->

<symbol id="icon-camper" viewBox="0 0 24 24">

<path d="M3 16h18"/>

<path d="M5 16V8h11l3 4v4"/>

<circle cx="8" cy="18" r="2"/>

<circle cx="17" cy="18" r="2"/>

<path d="M9 10h4"/>

</symbol>

</svg>
