<svg xmlns="http://www.w3.org/2000/svg" style="display:none">

<style>

.symbol{
fill:none;
stroke:currentColor;
stroke-width:1.9;
stroke-linecap:round;
stroke-linejoin:round;
vector-effect:non-scaling-stroke;
}

</style>

<symbol id="icon-home" viewBox="0 0 24 24">
<path class="symbol" d="M5 10.5L12 4l7 6.5"/>
<path class="symbol" d="M7 9.5V20h10V9.5"/>
</symbol>

  <symbol id="icon-products" viewBox="0 0 24 24">
<path class="symbol" d="M4 7h16v13H4z"/>
<path class="symbol" d="M8 7V4h8v3"/>
<path class="symbol" d="M4 12h16"/>
</symbol>

<symbol id="icon-projects" viewBox="0 0 24 24">
<path class="symbol" d="M3 20h18"/>
<path class="symbol" d="M7 20V9"/>
<path class="symbol" d="M12 20V4"/>
<path class="symbol" d="M17 20V12"/>
</symbol>
  <symbol id="icon-phone" viewBox="0 0 24 24">
<path class="symbol"
d="M5 4h3l2 5l-2 2a16 16 0 008 8l2-2l5 2v3c0 1-1 2-2 2C10 23 1 14 1 3c0-1 1-2 2-2z"/>
</symbol>
  <symbol id="icon-user" viewBox="0 0 24 24">
<circle class="symbol" cx="12" cy="8" r="4"/>
<path class="symbol" d="M5 20c1.8-3 4.2-4 7-4s5.2 1 7 4"/>
</symbol>
  <symbol id="icon-consumables" viewBox="0 0 24 24">
<path class="symbol" d="M10 2h4"/>
<path class="symbol" d="M12 2v8"/>
<path class="symbol" d="M8 10v9a3 3 0 003 3h2a3 3 0 003-3v-9"/>
<path class="symbol" d="M10 14h4"/>
</symbol>
  <symbol id="icon-hospital" viewBox="0 0 24 24">
<path class="symbol" d="M6 20V6h12v14"/>
<path class="symbol" d="M10 10h4"/>
<path class="symbol" d="M12 8v4"/>
</symbol>
  <symbol id="icon-gas" viewBox="0 0 24 24">
<circle class="symbol" cx="12" cy="8" r="3"/>
<path class="symbol" d="M12 11v9"/>
</symbol>
  <symbol id="icon-lead" viewBox="0 0 24 24">
<circle class="symbol" cx="12" cy="12" r="8"/>
<circle class="symbol" cx="12" cy="12" r="3"/>
</symbol>
  <symbol id="icon-special" viewBox="0 0 24 24">
<path class="symbol" d="M12 3l8 5v8l-8 5-8-5V8z"/>
</symbol>
  <symbol id="icon-interior" viewBox="0 0 24 24">
<path class="symbol" d="M5 20V8h14v12"/>
<path class="symbol" d="M9 12h6"/>
</symbol>
  <symbol id="icon-office" viewBox="0 0 24 24">
<path class="symbol" d="M5 20V4h14v16"/>
<path class="symbol" d="M9 8h2"/>
<path class="symbol" d="M13 8h2"/>
<path class="symbol" d="M9 12h2"/>
<path class="symbol" d="M13 12h2"/>
</symbol>
  <symbol id="icon-kitchen" viewBox="0 0 24 24">
<path class="symbol" d="M7 4h10v16H7z"/>
<path class="symbol" d="M7 10h10"/>
</symbol>
  <symbol id="icon-exhibition" viewBox="0 0 24 24">
<path class="symbol" d="M4 18h16"/>
<path class="symbol" d="M8 18V7"/>
<path class="symbol" d="M16 18V7"/>
<path class="symbol" d="M8 7h8"/>
</symbol>
  <symbol id="icon-camper" viewBox="0 0 24 24">
<path class="symbol" d="M4 8h13l3 4v6H4z"/>
<circle class="symbol" cx="8" cy="18" r="2"/>
<circle class="symbol" cx="17" cy="18" r="2"/>
</symbol>

  </svg>
