<svg xmlns="http://www.w3.org/2000/svg" style="display:none;">
  <symbol id="icon-home" viewBox="0 0 24 24">
    <path d="M3 10l9-7 9 7v10a2 2 0 0 1-2 2h-4v-6h-6v6H5a2 2 0 0 1-2-2z"/>
  </symbol>
  <symbol id="icon-user" viewBox="0 0 24 24">
    <circle cx="12" cy="7" r="4"/>
    <path d="M5.5 21a6.5 6.5 0 0 1 13 0"/>
  </symbol>
  <symbol id="icon-phone" viewBox="0 0 24 24">
    <path d="M22 16.92v3a2 2 0 0 1-2.18 2 19.79 19.79 0 0 1-8.63-3.07
             19.5 19.5 0 0 1-6-6 19.79 19.79 0 0 1-3.07-8.67
             A2 2 0 0 1 4.11 2h3 a2 2 0 0 1 2 1.72
             12.84 12.84 0 0 0 .7 2.81 2 2 0 0 1-.45 2.11
             L8.09 9.91 a16 16 0 0 0 6 6l1.27-1.27
             a2 2 0 0 1 2.11-.45 12.84 12.84 0 0 0 2.81.7
             A2 2 0 0 1 22 16.92z"/>
  </symbol>
  <symbol id="icon-whatsapp" viewBox="0 0 24 24">
    <path d="M20.5 3.5a10 10 0 1 0-14.2 14.2l-1.1 4.1 4.1-1.1
             a10 10 0 0 0 11.2-17.2zM12 17a5 5 0 0 1-2.5-.7l-.2-.2
             -1.5.4.4-1.5-.2-.2A5 5 0 1 1 12 17z"/>
  </symbol>
  <symbol id="icon-instagram" viewBox="0 0 24 24">
    <path d="M7 2h10a5 5 0 0 1 5 5v10a5 5 0 0 1-5 5H7a5 5 0 0 1-5-5V7a5 5 0 0 1 5-5zm8 3a1 1 0 1 0 0 2 1 1 0 0 0 0-2zm-5 2a5 5 0 1 0 0 10 5 5 0 0 0 0-10z"/>
  </symbol>
  <symbol id="icon-products" viewBox="0 0 24 24">
    <path d="M3 7h18M5 7l2-4h10l2 4M5 7v14h14V7"/>
    <path d="M9 11h6"/>
  </symbol>

  <symbol id="icon-projects" viewBox="0 0 24 24">
    <path d="M3 7h7l2 2h9v12H3z"/>
    <path d="M3 7V5h7l2 2"/>
  </symbol>
  
</svg>
